<svg xmlns="http://www.w3.org/2000/svg" width="54" height="54" viewBox="0 0 54 54">
  <metadata><?xpacket begin="﻿" id="W5M0MpCehiHzreSzNTczkc9d"?>
<x:xmpmeta xmlns:x="adobe:ns:meta/" x:xmptk="Adobe XMP Core 5.6-c138 79.159824, 2016/09/14-01:09:01        ">
   <rdf:RDF xmlns:rdf="http://www.w3.org/1999/02/22-rdf-syntax-ns#">
      <rdf:Description rdf:about=""/>
   </rdf:RDF>
</x:xmpmeta>
                                                                                                    
                                                                                                    
                                                                                                    
                                                                                                    
                                                                                                    
                                                                                                    
                                                                                                    
                                                                                                    
                                                                                                    
                                                                                                    
                                                                                                    
                                                                                                    
                                                                                                    
                                                                                                    
                                                                                                    
                                                                                                    
                                                                                                    
                                                                                                    
                                                                                                    
                                                                                                    
                           
<?xpacket end="w"?></metadata>
<defs>
    <style>
      .cls-1 {
        fill: #222;
        fill-rule: evenodd;
      }
    </style>
  </defs>
  <path id="Forma_1" data-name="Forma 1" class="cls-1" d="M323.312,2603.12h-3.375a3.375,3.375,0,0,1-3.375-3.37v-5.06H306.437v5.06a3.374,3.374,0,0,1-3.375,3.37h-3.375a1.69,1.69,0,0,0,0,3.38h23.625A1.69,1.69,0,0,0,323.312,2603.12Zm12.235-50.62H287.453a3.066,3.066,0,0,0-2.953,3.16v32.49a3.066,3.066,0,0,0,2.953,3.16h48.094a3.066,3.066,0,0,0,2.953-3.16v-32.49A3.066,3.066,0,0,0,335.547,2552.5Zm-0.422,35.44h-47.25v-32.07h47.25v32.07Z" transform="translate(-284.5 -2552.5)"/>
</svg>
