<?xml version="1.0" standalone="no"?>
<!DOCTYPE svg PUBLIC "-//W3C//DTD SVG 1.1//EN" "http://www.w3.org/Graphics/SVG/1.1/DTD/svg11.dtd" >
<svg xmlns="http://www.w3.org/2000/svg">
<metadata>Generated by IcoMoon</metadata>
<defs>
<font id="icomoon" horiz-adv-x="1024">
<font-face units-per-em="1024" ascent="960" descent="-64" />
<missing-glyph horiz-adv-x="1024" />
<glyph unicode="&#x20;" horiz-adv-x="512" d="" />
<glyph unicode="&#xe900;" glyph-name="arrow-down" d="M694.56 438.56c-5.792 5.798-13.797 9.385-22.64 9.385s-16.848-3.587-22.64-9.385v0l-105.28-105.28v306.72c0 17.673-14.327 32-32 32s-32-14.327-32-32v0-306.72l-105.44 105.44c-5.794 5.794-13.799 9.378-22.64 9.378-17.683 0-32.018-14.335-32.018-32.018 0-8.841 3.584-16.846 9.378-22.64l160-160c5.792-5.798 13.797-9.385 22.64-9.385s16.848 3.587 22.64 9.385v0l160 160c5.751 5.784 9.305 13.757 9.305 22.56s-3.555 16.776-9.307 22.562l0.002-0.002z" />
<glyph unicode="&#xe901;" glyph-name="arrow-left" d="M457.44 630.56l-160-160c-5.798-5.792-9.385-13.797-9.385-22.64s3.587-16.848 9.385-22.64v0l160-160c5.794-5.794 13.799-9.378 22.64-9.378 17.683 0 32.018 14.335 32.018 32.018 0 8.841-3.584 16.846-9.378 22.64l-105.44 105.44h306.72c17.673 0 32 14.327 32 32s-14.327 32-32 32v0h-306.72l105.44 105.44c5.794 5.794 9.378 13.799 9.378 22.64 0 17.683-14.335 32.018-32.018 32.018-8.841 0-16.846-3.584-22.64-9.378v0z" />
<glyph unicode="&#xe902;" glyph-name="arrow-right" d="M566.56 265.44l160 160c5.798 5.792 9.385 13.797 9.385 22.64s-3.587 16.848-9.385 22.64v0l-160 160c-5.794 5.794-13.799 9.378-22.64 9.378-17.683 0-32.018-14.335-32.018-32.018 0-8.841 3.584-16.846 9.378-22.64l105.44-105.44h-306.72c-17.673 0-32-14.327-32-32s14.327-32 32-32v0h306.72l-105.44-105.44c-5.794-5.794-9.378-13.799-9.378-22.64 0-17.683 14.335-32.018 32.018-32.018 8.841 0 16.846 3.584 22.64 9.378v0z" />
<glyph unicode="&#xe903;" glyph-name="arrow-up" d="M694.56 502.56l-160 160c-5.792 5.798-13.797 9.385-22.64 9.385s-16.848-3.587-22.64-9.385v0l-160-160c-5.794-5.794-9.378-13.799-9.378-22.64 0-17.683 14.335-32.018 32.018-32.018 8.841 0 16.846 3.584 22.64 9.378l105.44 105.44v-306.72c0-17.673 14.327-32 32-32s32 14.327 32 32v0 306.72l105.44-105.44c5.794-5.794 13.799-9.378 22.64-9.378 17.683 0 32.018 14.335 32.018 32.018 0 8.841-3.584 16.846-9.378 22.64v0z" />
<glyph unicode="&#xe904;" glyph-name="bell" d="M512 224c-42.114 0.091-76.229 34.206-76.32 76.311v0.009c0 7.246 5.874 13.12 13.12 13.12v0h126.24c7.246 0 13.12-5.874 13.12-13.12v0c0 0 0 0 0 0 0-42.094-34.078-76.229-76.151-76.32h-0.009zM464 288c6.162-21.075 25.314-36.208 48-36.208s41.838 15.133 47.911 35.856l0.089 0.353zM691.2 288h-358.4c-7.246 0-13.12 5.874-13.12 13.12v20.32c0 0.002 0 0.004 0 0.006 0 3.622 1.467 6.901 3.84 9.275l38.4 38.4v110.88c-0.002 0.314-0.004 0.684-0.004 1.056 0 66.412 43.885 122.574 104.239 141.069l1.045 0.276v4.8c0 24.742 20.058 44.8 44.8 44.8s44.8-20.058 44.8-44.8v-4.8c61.481-18.719 105.443-74.921 105.443-141.392 0-0.354-0.001-0.709-0.004-1.062v0.054-110.4l38.4-38.4c2.373-2.374 3.84-5.653 3.84-9.274 0-0.002 0-0.004 0-0.006v0-21.12c-0.178-7.107-5.982-12.801-13.116-12.801-0.058 0-0.115 0-0.173 0.001h0.009zM345.92 313.6h332.16v2.4l-38.080 38.4c-2.373 2.374-3.84 5.653-3.84 9.274 0 0.002 0 0.004 0 0.006v0 116.32c0.002 0.257 0.003 0.562 0.003 0.866 0 58.152-40.713 106.795-95.19 118.981l-0.813 0.153c-5.825 1.422-10.080 6.596-10.080 12.763 0 0.013 0 0.026 0 0.039v-0.002 14.4c0 10.162-8.238 18.4-18.4 18.4s-18.4-8.238-18.4-18.4v0-14.88c0-0.011 0-0.024 0-0.037 0-6.167-4.255-11.341-9.99-12.744l-0.090-0.019c-55.29-12.338-96.003-60.981-96.003-119.134 0-0.305 0.001-0.609 0.003-0.913v0.047-115.84c0-0.002 0-0.004 0-0.006 0-3.622-1.467-6.901-3.84-9.275l-38.4-38.4z" />
<glyph unicode="&#xe905;" glyph-name="chev-circle-down" d="M512 683.2c-0.095 0-0.207 0-0.32 0-129.897 0-235.2-105.303-235.2-235.2s105.303-235.2 235.2-235.2c129.897 0 235.2 105.302 235.2 235.2v0c-0.181 129.712-105.193 234.836-234.845 235.2h-0.035zM512 640c106.039 0 192-85.961 192-192s-85.961-192-192-192c-106.039 0-192 85.961-192 192v0c0 106.039 85.961 192 192 192v0zM581.44 480l-70.4-71.2-69.6 71.2c-3.248 3.272-7.747 5.297-12.72 5.297s-9.472-2.025-12.719-5.296l-0.001-0.001c-3.328-3.401-5.381-8.061-5.381-13.2s2.053-9.799 5.385-13.203l-0.003 0.003 83.2-84c3.255-3.32 7.787-5.379 12.8-5.379s9.545 2.058 12.797 5.376l0.003 0.003 83.2 84c3.444 2.952 5.612 7.308 5.612 12.17 0 0.222-0.005 0.442-0.013 0.662l0.001-0.031c-0.143 5.281-2.249 10.044-5.61 13.61l0.010-0.010c-3.219 3.764-7.972 6.135-13.28 6.135s-10.061-2.371-13.26-6.111l-0.020-0.024z" />
<glyph unicode="&#xe906;" glyph-name="chev-circle-left" d="M496 682.88c-129.583-0.182-234.56-105.272-234.56-234.88 0-129.721 105.159-234.88 234.88-234.88s234.88 105.159 234.88 234.88v0c-0.273 129.723-105.451 234.789-235.191 234.88h-0.009zM496 256c-106.039 0-192 85.961-192 192s85.961 192 192 192c106.039 0 192-85.961 192-192v0c0-106.039-85.961-192-192-192v0zM528 544c-3.362 3.186-7.811 5.255-12.735 5.596l-0.065 0.004c-0.188 0.008-0.409 0.012-0.63 0.012-4.862 0-9.217-2.168-12.152-5.591l-0.018-0.022-84-83.2c-3.32-3.255-5.379-7.787-5.379-12.8s2.058-9.545 5.376-12.797l83.203-83.203c3.401-3.328 8.061-5.381 13.2-5.381s9.799 2.053 13.203 5.385l-0.003-0.003c3.32 3.255 5.379 7.787 5.379 12.8s-2.058 9.545-5.376 12.797l-72.003 70.403 72 70.080c3.549 3.205 5.77 7.823 5.77 12.96s-2.221 9.755-5.755 12.946l-0.015 0.014z" />
<glyph unicode="&#xe907;" glyph-name="chev-circle-right" d="M276.8 448c0-0.095 0-0.207 0-0.32 0-129.897 105.303-235.2 235.2-235.2s235.2 105.303 235.2 235.2c0 129.897-105.302 235.2-235.2 235.2v0c-129.712-0.181-234.836-105.193-235.2-234.845v-0.035zM320 448c0 106.039 85.961 192 192 192s192-85.961 192-192c0-106.039-85.961-192-192-192v0c-106.039 0-192 85.961-192 192v0zM480 518.080l72-70.080-72-69.92c-3.469-3.275-5.628-7.905-5.628-13.040s2.159-9.765 5.62-13.032l0.009-0.008c3.401-3.328 8.061-5.381 13.2-5.381s9.799 2.053 13.203 5.385l-0.003-0.003 84 83.2c3.32 3.255 5.379 7.787 5.379 12.8s-2.058 9.545-5.376 12.797l-0.003 0.003-84 83.2c-2.952 3.444-7.308 5.612-12.17 5.612-0.222 0-0.442-0.005-0.662-0.013l0.031 0.001c-5.281-0.143-10.044-2.249-13.61-5.61l0.010 0.010c-3.549-3.205-5.77-7.823-5.77-12.96s2.221-9.755 5.755-12.946l0.015-0.014z" />
<glyph unicode="&#xe908;" glyph-name="chev-circle-up" d="M746.88 448c-0.182 129.583-105.272 234.56-234.88 234.56-129.721 0-234.88-105.159-234.88-234.88s105.159-234.88 234.88-234.88v0c129.723 0.273 234.789 105.451 234.88 235.191v0.009zM320 448c0 106.039 85.961 192 192 192s192-85.961 192-192c0-106.039-85.961-192-192-192v0c-106.039 0-192 85.961-192 192v0zM608 416c3.186 3.362 5.255 7.811 5.596 12.735l0.004 0.065c0.008 0.188 0.012 0.409 0.012 0.63 0 4.862-2.168 9.217-5.591 12.152l-0.022 0.018-83.2 84c-3.255 3.32-7.787 5.379-12.8 5.379s-9.545-2.058-12.797-5.376l-83.203-83.203c-3.328-3.401-5.381-8.061-5.381-13.2s2.053-9.799 5.385-13.203l-0.003 0.003c3.255-3.32 7.787-5.379 12.8-5.379s9.545 2.058 12.797 5.376l70.403 72.003 70.080-72c3.205-3.549 7.823-5.77 12.96-5.77s9.755 2.221 12.946 5.755l0.014 0.015z" />
<glyph unicode="&#xe909;" glyph-name="chev-down" d="M337.12 547.2c-5.826-6.131-9.61-14.252-10.233-23.242l-0.007-0.118c-0.017-0.37-0.027-0.805-0.027-1.241 0-8.85 3.969-16.772 10.225-22.084l0.042-0.034 151.84-153.28c5.854-6.241 14.153-10.13 23.36-10.13s17.506 3.888 23.344 10.112l0.016 0.017 152.32 153.28c6.034 6.191 9.755 14.661 9.755 24s-3.722 17.809-9.762 24.007l0.007-0.007c-5.854 6.241-14.153 10.13-23.36 10.13s-17.506-3.888-23.344-10.112l-0.016-0.017-127.68-131.2-128 129.92c-5.902 6.82-14.57 11.109-24.24 11.109s-18.338-4.289-24.206-11.069l-0.034-0.040z" />
<glyph unicode="&#xe90a;" glyph-name="chev-left" d="M611.2 622.88c-6.131 5.826-14.252 9.61-23.242 10.233l-0.118 0.007c-0.37 0.017-0.805 0.027-1.241 0.027-8.85 0-16.772-3.969-22.084-10.225l-0.034-0.042-153.28-151.84c-6.241-5.854-10.13-14.153-10.13-23.36s3.888-17.506 10.112-23.344l0.017-0.016 153.28-152.32c6.191-6.034 14.661-9.755 24-9.755s17.809 3.722 24.007 9.762l-0.007-0.007c6.241 5.854 10.13 14.153 10.13 23.36s-3.888 17.506-10.112 23.344l-0.017 0.016-131.2 127.68 129.92 128c6.82 5.902 11.109 14.57 11.109 24.24s-4.289 18.338-11.069 24.206l-0.040 0.034z" />
<glyph unicode="&#xe90b;" glyph-name="chev-right" d="M412.8 574.72l129.92-128-131.36-126.72c-6.241-5.854-10.13-14.153-10.13-23.36s3.888-17.506 10.112-23.344l0.017-0.016c6.191-6.034 14.661-9.755 24-9.755s17.809 3.722 24.007 9.762l-0.007-0.007 153.28 151.84c6.241 5.854 10.13 14.153 10.13 23.36s-3.888 17.506-10.112 23.344l-0.017 0.016-153.28 151.84c-5.347 6.297-13.269 10.267-22.119 10.267-0.437 0-0.871-0.010-1.303-0.029l0.061 0.002c-9.108-0.63-17.229-4.414-23.376-10.255l0.016 0.015c-6.939-5.907-11.311-14.649-11.311-24.413 0-9.837 4.439-18.637 11.422-24.507l0.049-0.040z" />
<glyph unicode="&#xe90c;" glyph-name="chev-up" d="M686.88 348.8c5.826 6.131 9.61 14.252 10.233 23.242l0.007 0.118c0.017 0.37 0.027 0.805 0.027 1.241 0 8.85-3.969 16.772-10.225 22.084l-0.042 0.034-151.84 153.28c-5.854 6.241-14.153 10.13-23.36 10.13s-17.506-3.888-23.344-10.112l-0.016-0.017-152.32-153.28c-6.034-6.191-9.755-14.661-9.755-24s3.722-17.809 9.762-24.007l-0.007 0.007c5.854-6.241 14.153-10.13 23.36-10.13s17.506 3.888 23.344 10.112l0.016 0.017 126.88 131.36 128-129.92c5.913-7.145 14.782-11.663 24.706-11.663 9.851 0 18.663 4.452 24.533 11.453l0.041 0.050z" />
<glyph unicode="&#xe90d;" glyph-name="comment" d="M532.32 672h-2.080c-123.712 0-224-100.288-224-224s100.288-224 224-224v0h2.080c11.186 0.090 20.23 9.134 20.32 20.311v62.249c91.549 11.169 161.769 88.426 161.769 182.084 0 100.82-81.37 182.635-182.021 183.355h-0.069zM532.32 346.24c-11.242-0.091-20.32-9.225-20.32-20.479 0 0 0 0 0-0.001v0-60c-91.549 11.169-161.769 88.426-161.769 182.084 0 100.82 81.37 182.635 182.021 183.355h0.069c78.734 0 142.56-63.826 142.56-142.56s-63.826-142.56-142.56-142.56v0zM573.12 529.44c22.533 0 40.8-18.267 40.8-40.8s-18.267-40.8-40.8-40.8c-22.533 0-40.8 18.267-40.8 40.8v0c0 22.533 18.267 40.8 40.8 40.8v0zM450.88 529.44c22.533 0 40.8-18.267 40.8-40.8s-18.267-40.8-40.8-40.8c-22.533 0-40.8 18.267-40.8 40.8v0c0 22.533 18.267 40.8 40.8 40.8v0z" />
<glyph unicode="&#xe90e;" glyph-name="icons_video" d="M443.68 355.84c-6.472 0.088-11.684 5.355-11.684 11.839 0 0.113 0.002 0.225 0.005 0.338v-0.017l-1.6 160c0 0.032 0 0.069 0 0.107 0 6.627 5.373 12 12 12 2.049 0 3.977-0.513 5.665-1.419l-0.064 0.031 139.84-78.88c3.629-2.069 6.036-5.914 6.036-10.32s-2.407-8.251-5.978-10.289l-0.058-0.031-138.24-81.76c-1.699-0.995-3.739-1.587-5.916-1.6h-0.004zM448 517.76l1.44-139.52 120 71.040zM512 185.12c-145.185 0-262.88 117.695-262.88 262.88s117.695 262.88 262.88 262.88c145.185 0 262.88-117.695 262.88-262.88v0c-0.182-145.111-117.769-262.698-262.863-262.88h-0.017zM512 692.96c-135.288 0-244.96-109.672-244.96-244.96s109.672-244.96 244.96-244.96c135.288 0 244.96 109.672 244.96 244.96v0c-0.182 135.214-109.746 244.778-244.943 244.96h-0.017z" />
<glyph unicode="&#xe90f;" glyph-name="like" d="M515.040 216c-0.606-0.009-1.321-0.015-2.037-0.015-35.635 0-68.182 13.223-93.002 35.031l0.158-0.136v-5.28c-0.26-9.349-7.771-16.86-17.096-17.119l-0.024-0.001h-93.44c-9.349 0.26-16.86 7.771-17.119 17.096l-0.001 0.024v248.8c0.139 9.015 7.097 16.361 15.935 17.116l0.065 0.004h95.040c9.349-0.26 16.86-7.771 17.119-17.096l0.001-0.024v-11.68c16.802 7.404 31.167 17.26 43.377 29.297l-0.017-0.017 8.32 7.040c33.172 30.041 59.716 66.739 77.618 108.053l0.782 2.027c5.44 10.72 11.040 21.92 17.44 33.92 4.537 9.706 14.219 16.31 25.443 16.31 1.467 0 2.908-0.113 4.314-0.33l-0.157 0.020h1.76c10.041-1.64 18.632-6.878 24.579-14.321l0.061-0.079c12.321-14.002 19.84-32.489 19.84-52.733 0-0.024 0-0.047 0-0.071v0.004c0.003-0.381 0.004-0.831 0.004-1.281 0-36.117-9.248-70.073-25.504-99.631l0.54 1.072h39.2c30.080 0 65.6-14.72 66.88-54.72-0.663-13.483-6.684-25.442-15.961-33.885l-0.039-0.035c13.004-5.921 21.944-18.682 22.239-33.562l0.001-0.038c0.015-0.426 0.023-0.927 0.023-1.43 0-21.785-16.007-39.832-36.902-43.020l-0.242-0.030c3.267-4.845 5.449-10.676 6.068-16.966l0.012-0.154c0.003-0.191 0.004-0.417 0.004-0.644 0-23.742-17.238-43.459-39.881-47.316l-0.284-0.040c1.698-4.418 2.693-9.529 2.72-14.869v-0.011c0-26.51-21.49-48-48-48v0zM420.16 306.24c16.76-33.507 50.817-56.111 90.153-56.111 1.662 0 3.315 0.040 4.958 0.12l-0.232-0.009h99.68c0.096-0.002 0.208-0.004 0.321-0.004 7.599 0 13.76 6.161 13.76 13.76 0 0.058 0 0.115-0.001 0.172v-0.009c0.001 0.070 0.002 0.152 0.002 0.234 0 7.181-5.438 13.092-12.421 13.84l-0.061 0.005c-9.009 0.845-16.004 8.369-16.004 17.528 0 0.138 0.002 0.276 0.005 0.413v-0.020c0.831 8.869 8.135 15.785 17.099 16h34.741c0.114-0.003 0.248-0.005 0.383-0.005 5.967 0 11.037 3.843 12.869 9.19l0.028 0.096c0 5.44-2.88 8.32-11.2 13.44-3.463 2.076-6.441 4.189-9.247 6.502l0.127-0.102c-5.031 3.612-8.269 9.445-8.269 16.034 0 2.458 0.451 4.811 1.274 6.981l-0.045-0.135c2.369 6.060 8.163 10.275 14.941 10.275 0.373 0 0.742-0.013 1.109-0.038l-0.050 0.003h1.92c1.805-0.088 3.919-0.139 6.046-0.139 9.933 0 19.609 1.1 28.913 3.184l-0.878-0.165c4.518 1.626 7.691 5.875 7.691 10.865 0 0.174-0.004 0.347-0.012 0.52l0.001-0.024c0 7.040-25.44 11.040-36 12.8h-3.36c-9.12 0-19.040 7.040-19.040 16 0.509 9.973 8.556 17.909 18.529 18.239l0.031 0.001h1.44c13.12 0 32 10.88 32 20.64 0 18.56-27.36 19.84-32 19.84h-69.44c-9.351 0.565-16.721 8.286-16.721 17.73 0 2.993 0.74 5.813 2.048 8.287l-0.047-0.097c21.807 30.128 34.882 67.822 34.882 108.569 0 0.306-0.001 0.612-0.002 0.918v-0.047c-0.427 11.293-4.392 21.583-10.809 29.88l0.089-0.12c-0.793 0.651-1.685 1.237-2.636 1.721l-0.084 0.039c-5.28-9.92-10.080-19.52-14.72-28.8-20.844-47.014-49.872-86.856-85.638-119.427l-0.282-0.253c-19.629-22.235-45.462-38.573-74.786-46.323l-1.054-0.237zM385.92 262.72v214.56h-59.2v-214.56zM572.64 661.92c-30.88-57.76-43.040-97.76-97.12-145.76-19.52-16-39.2-35.84-60.16-39.52v17.76c-0.255 6.788-5.692 12.225-12.456 12.479l-0.024 0.001h-94.4c-6.309-0.805-11.165-6.046-11.36-12.46v-248.82c0.255-6.788 5.692-12.225 12.456-12.479l0.024-0.001h93.44c6.788 0.255 12.225 5.692 12.479 12.456l0.001 0.024v16c24.533-25.386 58.887-41.148 96.922-41.148 0.97 0 1.937 0.010 2.902 0.031l-0.144-0.002h99.68c23.999 0.091 43.429 19.521 43.52 43.511v0.009c-0.135 6.92-1.895 13.4-4.912 19.113l0.112-0.233c23.393 0.795 42.076 19.869 42.24 43.344v0.016c-0.838 8.114-4.408 15.266-9.761 20.641l0.001-0.001c24.32 4 40.8 16 40.8 41.44-0.28 15.923-11.139 29.235-25.835 33.223l-0.245 0.057c11.044 8.027 18.364 20.6 19.194 34.915l0.006 0.125c-1.28 36.48-33.44 49.92-62.24 50.080h-46.56c18.096 29.897 28.804 66.019 28.804 104.642 0 0.449-0.001 0.898-0.004 1.347v-0.069c0 0.033 0 0.072 0 0.111 0 19.067-7.096 36.476-18.791 49.731l0.071-0.082c-5.339 6.621-12.906 11.257-21.547 12.769l-0.213 0.031c-9.28 0-21.76 0-26.4-13.44zM602.4 645.92c7.303-9.063 11.875-20.598 12.317-33.183l0.003-0.097c0-0.154 0.001-0.336 0.001-0.518 0-41.821-13.371-80.519-36.071-112.052l0.39 0.57c-0.853-1.692-1.353-3.689-1.353-5.802 0-6.877 5.292-12.519 12.025-13.075l0.047-0.003h68.48c18.56 0 36.96-7.040 37.28-24.48 0-13.28-21.92-24.96-37.28-25.28-0.152 0.006-0.331 0.009-0.511 0.009-7.707 0-14.015-5.988-14.526-13.564l-0.002-0.045c0-6.24 7.84-11.040 15.2-11.68 16-2.56 42.88-6.080 43.36-18.080 0.014-0.249 0.022-0.541 0.022-0.834 0-7.012-4.511-12.971-10.789-15.132l-0.113-0.034c-8.705-2.040-18.701-3.21-28.97-3.21-2.36 0-4.706 0.062-7.036 0.184l0.326-0.014c-6.24 0-9.6 0-12.8-7.2-0.618-1.582-0.975-3.413-0.975-5.328 0-5.145 2.584-9.687 6.525-12.399l0.051-0.033c9.28-8 23.84-11.68 21.76-24.48-2.389-7.481-9.278-12.803-17.411-12.803-0.123 0-0.245 0.001-0.367 0.004h-34.062c-0.557 0.088-1.199 0.138-1.854 0.138-6.893 0-12.48-5.587-12.48-12.48s5.587-12.48 12.48-12.48c0.258 0 0.514 0.008 0.769 0.023l-0.035-0.002c9.091-1.3 16.003-9.034 16.003-18.383 0-0.118-0.001-0.237-0.003-0.355v0.018c0.002-0.096 0.003-0.209 0.003-0.323 0-10.162-8.238-18.4-18.4-18.4-0.114 0-0.227 0.001-0.34 0.003h-99.023c-1.151-0.045-2.503-0.071-3.86-0.071-41.743 0-77.82 24.257-94.905 59.444l-0.275 0.627v147.52c30.927 7.086 57.358 23.163 77.156 45.299l0.124 0.141c56.8 50.72 71.68 96 100.8 150.4 2.56 1.28 4.96 0 8.96-2.56zM322.080 481.92h68.48c0-76.96 0-157.44 0-224h-68.48z" />
<glyph unicode="&#xe910;" glyph-name="news" d="M660 676.16c6.516-0.672 11.648-5.804 12.315-12.261l0.005-0.059v-111.040h74.080c6.544-0.609 11.711-5.776 12.316-12.266l0.004-0.054v-265.12c-0.091-30.626-24.894-55.429-55.511-55.52h-382.409c-30.626 0.091-55.429 24.894-55.52 55.511v388.489c0.255 6.699 5.621 12.065 12.296 12.319l0.024 0.001zM647.68 651.52h-357.6v-376.16c-0.001-0.096-0.002-0.209-0.002-0.322 0-16.878 13.682-30.56 30.56-30.56 0.113 0 0.226 0.001 0.339 0.002h337.583c-6.446 8.512-10.428 19.204-10.719 30.813l-0.001 0.067zM598.4 614.56c6.544-0.609 11.711-5.776 12.316-12.266l0.004-0.054v-86.4c-0.255-6.699-5.621-12.065-12.296-12.319l-0.024-0.001h-123.36c-6.699 0.255-12.065 5.621-12.319 12.296l-0.001 0.024v86.4c0.255 6.699 5.621 12.065 12.296 12.319l0.024 0.001zM413.44 602.24c6.804 0 12.32-5.516 12.32-12.32s-5.516-12.32-12.32-12.32h-74.080c-6.804 0-12.32 5.516-12.32 12.32s5.516 12.32 12.32 12.32v0zM586.080 589.92h-98.72v-61.92h98.72zM413.28 540.48c6.804 0 12.32-5.516 12.32-12.32s-5.516-12.32-12.32-12.32h-73.92c-6.804 0-12.32 5.516-12.32 12.32s5.516 12.32 12.32 12.32v0zM733.28 528.16h-61.28v-252.8c-0.051-0.665-0.080-1.44-0.080-2.221 0-17.055 13.825-30.88 30.88-30.88s30.88 13.825 30.88 30.88c0 0.782-0.029 1.557-0.086 2.324l0.006-0.102zM598.4 466.56c6.804 0 12.32-5.516 12.32-12.32s-5.516-12.32-12.32-12.32v0h-259.040c-6.804 0-12.32 5.516-12.32 12.32s5.516 12.32 12.32 12.32v0zM598.4 398.72c6.804 0 12.32-5.516 12.32-12.32s-5.516-12.32-12.32-12.32h-259.040c-6.804 0-12.32 5.516-12.32 12.32s5.516 12.32 12.32 12.32v0zM598.4 330.88c6.804 0 12.32-5.516 12.32-12.32s-5.516-12.32-12.32-12.32h-259.040c-6.804 0-12.32 5.516-12.32 12.32s5.516 12.32 12.32 12.32v0z" />
<glyph unicode="&#xe911;" glyph-name="speech" d="M331.84 494.4c8.527 1.794 18.325 2.821 28.363 2.821 33.197 0 63.77-11.233 88.126-30.106l-0.329 0.245c33.67-26.053 55.138-66.47 55.138-111.902 0-43.559-19.736-82.509-50.753-108.396l-0.225-0.183c-24.889-21.102-57.371-33.932-92.85-33.932-0.658 0-1.314 0.004-1.97 0.013l0.099-0.001c-57.811 0.578-108.334 31.244-136.719 77.065l-0.401 0.695c-20.697 36.678-33.182 80.403-33.917 126.981l-0.003 0.219c5.6 121.44 57.92 206.24 158.24 251.52 10.191 4.112 22.263 7.656 34.747 10.041l1.253 0.199 17.6 2.56c2.19 0.612 4.705 0.963 7.303 0.963 15.552 0 28.16-12.608 28.16-28.16 0-0.846-0.037-1.683-0.11-2.51l0.008 0.107v-29.6c0.001-0.081 0.001-0.176 0.001-0.271 0-15.358-11.761-27.97-26.768-29.32l-0.114-0.008c-53.76-9.92-76.16-36.32-82.080-99.52zM403.2 657.6c-117.76-17.6-180.64-132.32-184.96-241.6-0.073-2.025-0.114-4.403-0.114-6.792 0-38.177 10.57-73.886 28.943-104.358l-0.509 0.91c23.923-38.17 65.511-63.339 113.023-63.999l0.097-0.001c28.526 0.059 54.674 10.197 75.081 27.041l-0.201-0.161c24.252 20.189 39.577 50.387 39.577 84.164 0 1.236-0.021 2.468-0.061 3.695l0.005-0.178c-0.608 35.162-17.562 66.242-43.569 86.042l-0.271 0.198c-19.026 15.030-43.357 24.11-69.809 24.11-8.658 0-17.089-0.973-25.189-2.815l0.758 0.145c-2.638-0.926-5.68-1.461-8.847-1.461-0.377 0-0.753 0.008-1.126 0.023l0.054-0.002c-0.1-0.001-0.218-0.002-0.336-0.002-15.834 0-28.732 12.569-29.263 28.273l-0.001 0.049c-0.337 2.116-0.53 4.555-0.53 7.040s0.193 4.924 0.564 7.305l-0.034-0.265c7.040 60.8 28.32 103.2 104.64 117.28 2.88 0 2.88 1.44 2.88 1.44zM664.8 494.4c8.728 1.88 18.755 2.957 29.034 2.957 33.183 0 63.745-11.224 88.096-30.083l-0.33 0.246c33.67-26.053 55.138-66.47 55.138-111.902 0-43.559-19.736-82.509-50.753-108.396l-0.225-0.183c-24.889-21.102-57.371-33.932-92.85-33.932-0.658 0-1.314 0.004-1.97 0.013l0.099-0.001c-57.811 0.578-108.334 31.244-136.719 77.065l-0.401 0.695c-20.66 36.687-33.139 80.404-33.917 126.968l-0.003 0.232c5.6 121.6 57.92 206.24 158.24 251.52 10.194 4.116 22.267 7.66 34.752 10.042l1.248 0.198 17.6 2.4c2.436 0.763 5.236 1.202 8.14 1.202 15.552 0 28.16-12.608 28.16-28.16 0-0.987-0.051-1.962-0.15-2.922l0.010 0.12v-29.6c0.001-0.081 0.001-0.176 0.001-0.271 0-15.358-11.761-27.97-26.768-29.32l-0.114-0.008c-53.76-9.92-76.16-36.32-82.080-99.52zM737.6 657.44c-119.2-17.44-182.080-132.16-186.4-241.44-0.073-2.025-0.114-4.403-0.114-6.792 0-38.177 10.57-73.886 28.943-104.358l-0.509 0.91c23.923-38.17 65.511-63.339 113.023-63.999l0.097-0.001c28.814 0.23 55.134 10.717 75.534 27.983l-0.174-0.143c24.109 20.667 39.289 51.156 39.289 85.189 0 35.919-16.908 67.888-43.199 88.383l-0.25 0.188c-18.929 14.775-43.058 23.69-69.27 23.69-9.256 0-18.253-1.112-26.864-3.209l0.774 0.159c-2.638-0.926-5.68-1.461-8.847-1.461-0.377 0-0.753 0.008-1.126 0.023l0.054-0.002c-0.1-0.001-0.218-0.002-0.336-0.002-15.834 0-28.732 12.569-29.263 28.273l-0.001 0.049c-0.343 2.116-0.539 4.555-0.539 7.040s0.196 4.924 0.573 7.303l-0.034-0.263c7.040 60.8 28.32 103.2 104.48 117.28 2.56 0.64 2.56 1.76 2.56 1.76z" />
<glyph unicode="&#xe912;" glyph-name="tag" d="M708.48 393.6l-208 208c-1.767 1.787-4.068 3.043-6.644 3.509l-0.076 0.011c-20.897 3.645-46.003 6.389-71.506 7.624l-1.454 0.056c0 1.6-0.8 3.040-1.28 4.64-6.155 20.019-16.758 37.135-30.705 50.865l-0.015 0.015c-8.806 9.598-21.407 15.592-35.408 15.592-4.015 0-7.915-0.493-11.642-1.422l0.33 0.070c-28.8-10.56-38.080-55.2-22.080-105.28v0c-16-43.36-2.88-128 0-146.72 0.477-2.652 1.733-4.953 3.519-6.719l208.001-208.001c2.264-2.292 5.406-3.711 8.88-3.711s6.616 1.419 8.879 3.71l160.001 160.001c2.292 2.264 3.711 5.406 3.711 8.88s-1.419 6.616-3.71 8.879l-0.001 0.001zM416 529.6c2.385-2.4 3.859-5.708 3.859-9.36s-1.474-6.96-3.86-9.361l0.001 0.001c-2.433-2.312-5.73-3.733-9.36-3.733s-6.927 1.422-9.366 3.739l0.006-0.006c-1.981 2.012-3.318 4.664-3.674 7.617l-0.006 0.063h1.12c7.507 2.532 13.772 7.092 18.333 13.029l0.067 0.091c1.163-0.628 2.163-1.373 3.041-2.241l-0.001 0.001zM349.76 657.44c0.892 0.115 1.924 0.181 2.971 0.181 7.619 0 14.425-3.481 18.915-8.939l0.034-0.042c10.046-10.061 17.83-22.383 22.523-36.137l0.197-0.663c-1.094 0.035-2.379 0.055-3.67 0.055-18.939 0-36.881-4.268-52.917-11.894l0.747 0.32c-6.080 30.24 0 53.44 11.040 57.12zM539.040 241.44l-194.88 196.96c-8.16 49.12-12.16 121.6 3.84 137.6 3.2 3.2 14.72 10.4 52.96 10.88 0.616-3.751 0.968-8.075 0.968-12.48s-0.352-8.729-1.029-12.943l0.061 0.463c-0.419-1.965-0.86-3.573-1.379-5.147l0.099 0.347c-17.493-3.897-30.376-19.285-30.376-37.682 0-21.296 17.264-38.56 38.56-38.56s38.56 17.264 38.56 38.56c0 15.131-8.715 28.227-21.4 34.541l-0.224 0.101c0 0.96 0 1.76 0 2.88 1.141 5.76 1.794 12.382 1.794 19.157 0 3.622-0.187 7.2-0.551 10.725l0.037-0.442c26.4-1.44 50.88-4.96 60.16-6.4l195.68-196z" />
<glyph unicode="&#xe913;" glyph-name="facebook" d="M967.488 960h-910.976c-31.232 0-56.512-25.28-56.512-56.512v-910.976c0-31.232 25.28-56.512 56.512-56.512h490.432v396.544h-133.504v154.496h133.504v114.112c0 132.224 80.768 204.16 198.784 204.16 56.512 0 105.088-4.096 119.232-6.016v-138.24h-81.92c-64 0-76.48-30.72-76.48-75.52v-98.56h152.96l-19.84-154.88h-133.12v-396.096h260.928c31.232 0 56.512 25.28 56.512 56.512v910.976c0 31.232-25.28 56.512-56.512 56.512z" />
<glyph unicode="&#xe914;" glyph-name="google" d="M522.24 521.152v-175.552h290.368c-11.712-75.328-87.68-220.8-290.368-220.8-174.72 0-317.44 144.64-317.44 323.2s142.72 323.2 317.44 323.2c99.456 0 166.016-42.24 204.16-78.912l138.88 133.888c-89.216 83.264-204.8 133.824-343.040 133.824-283.072 0-512-228.928-512-512s228.928-512 512-512c295.488 0 491.52 207.744 491.52 500.288 0 33.664-3.648 59.264-8.064 84.864h-483.456z" />
<glyph unicode="&#xe915;" glyph-name="google-plus" d="M325.76 494.528v-111.68h184.96c-7.424-48-55.872-140.608-184.768-140.608-111.168 0-201.92 92.16-201.92 205.76s90.56 205.76 201.728 205.76c63.36 0 105.728-27.008 129.92-50.304l88.448 85.12c-56.768 53.12-130.368 85.12-218.24 85.12-180.288 0.064-325.888-145.856-325.888-325.696s145.664-325.76 325.76-325.76c188.16 0 312.832 132.16 312.832 318.336 0 21.376-2.304 37.76-5.12 53.952h-307.712zM1024 494.528h-93.12v93.12h-93.12v-93.12h-93.056v-93.056h93.12v-93.12h93.44v93.12h92.736z" />
<glyph unicode="&#xe916;" glyph-name="brand4" d="M872.448 87.36h-151.68v237.632c0 56.704-1.152 129.6-78.976 129.6-79.040 0-91.136-61.696-91.136-125.44v-241.792h-151.68v488.64h145.664v-66.56h1.92c20.352 38.4 69.888 78.912 143.808 78.912 153.6 0 182.080-101.12 182.080-232.768v-268.032zM227.712 642.88c-48.768 0-88.064 39.488-88.064 88.128 0 48.512 39.296 88 88.064 88 48.64 0 88.064-39.488 88.064-88 0-48.64-39.488-88.128-88.064-88.128zM303.744 87.36h-152.064v488.64h152.064v-488.64zM948.224 960h-872.704c-41.728 0-75.52-33.024-75.52-73.792v-876.416c0-40.768 33.792-73.792 75.52-73.792h872.64c41.728 0 75.84 33.024 75.84 73.792v876.416c0 40.768-34.112 73.792-75.84 73.792z" />
<glyph unicode="&#xe917;" glyph-name="access" d="M1024 319.232c-2.176-23.168-33.024-41.6-92.352-55.040-59.392-13.696-133.888-20.48-223.616-20.48-26.496 0-51.84 0.32-76.16 1.088v-140.032c24.32-1.472 49.664-2.24 76.16-2.24 89.344 0.768 163.84 8.704 223.36 24 59.52 15.232 90.432 34.432 92.608 57.6v135.040zM706.944 420.16c-25.728 0-51.2 0.64-76.16 2.176l1.152-142.72c24.32-0.64 49.6-1.28 76.16-1.28 89.6 0.64 164.16 8.32 223.552 23.68 59.328 14.72 90.24 33.92 92.352 56.96v137.664c-2.176-23.168-33.152-41.728-92.928-55.68-59.712-14.080-134.4-21.12-224.128-21.12zM706.944 596.032c-25.728 0-51.2 0.768-76.16 2.24v-142.272c24.96-1.472 50.432-2.24 76.16-2.24 89.6 0.768 164.48 8.64 224.128 23.68 59.776 15.104 90.752 34.24 92.928 57.408v136.768c-2.176-23.168-33.152-41.6-92.928-55.168-59.712-13.568-134.4-20.48-224.128-20.48zM706.944 793.472c-25.728 0-51.2-1.088-76.16-3.328v-157.696c24.96-1.472 50.432-2.176 76.16-2.176 89.6 0.64 164.48 8.512 224.128 23.424 59.776 14.848 90.752 34.112 92.928 57.6-2.176 23.168-33.152 42.496-92.928 57.92-59.712 15.36-134.4 23.040-224.128 23.68zM276.224 571.264c-1.408-8.448-7.296-35.2-17.6-80l-19.2-78.272 76.8-1.088-17.92 78.336c-10.88 45.568-17.92 72.96-19.2 80.64h-2.56zM0 825.472v-757.76l577.92-99.712v960l-577.92-102.528zM353.472 260.8l-21.504 85.44-106.432 3.84-20.48-80.448-67.84 4.48 103.232 361.6 78.848 4.48 112.64-383.808-78.72 4.48z" />
<glyph unicode="&#xe918;" glyph-name="excel" d="M1004.928 827.712h-343.040v-63.488h101.12v-100.48h-101.12v-32h101.12v-100.544h-101.12v-32.96h101.12v-95.040h-101.12v-38.080h101.12v-95.36h-101.12v-38.080h101.12v-95.872h-101.12v-69.888h343.040c5.376 1.6 9.92 7.936 13.568 19.072 3.648 11.2 5.504 20.224 5.504 27.136v704c0 5.44-1.92 8.704-5.504 9.856-3.648 1.152-8.192 1.728-13.568 1.728zM960.448 135.872h-164.608v95.808h164.608v-95.872zM960.448 269.824h-164.608v95.36h164.608v-95.36zM960.448 403.264h-164.608v94.656h164.608v-94.72zM960.448 531.264h-164.608v100.416h164.608v-100.48zM960.448 664.384h-164.608v99.776h164.608v-100.48zM0 843.52v-793.6l604.16-104.512v1005.312l-604.16-107.52zM358.080 243.2c-2.304 6.208-13.12 32.64-32.32 79.488-19.2 46.72-30.72 73.984-34.112 81.728h-1.088l-64.768-154.24-86.592 5.824 102.72 192-94.080 192 88.32 4.672 58.368-150.208h1.152l65.92 157.056 91.2 5.76-108.608-207.808 112-211.968-98.112 5.76z" />
<glyph unicode="&#xe919;" glyph-name="onenote" d="M1021.76 525.44v-153.28c0-5.952-2.112-11.008-6.4-15.36-4.224-4.16-9.344-6.4-15.232-6.4h-33.28v196.8h33.28c5.888 0 11.008-2.176 15.232-6.4 4.288-4.288 6.4-9.344 6.4-15.36zM1000.128 327.68c5.888 0 11.008-2.112 15.232-6.4 4.288-4.224 6.4-9.344 6.4-15.232v-153.92c0-5.952-2.112-11.008-6.4-15.36-4.224-4.16-9.344-6.272-15.232-6.272h-33.28v197.184h33.28zM1000.128 766.72c5.888 0 11.392-2.176 16.384-6.4 4.992-4.352 7.488-9.408 7.488-15.36v-153.344c0-6.272-2.56-11.52-7.488-15.552-4.992-3.84-10.496-5.76-16.384-5.76h-55.040v-472.96c0-5.76-2.176-10.24-6.656-14.080-4.48-3.2-9.6-5.12-15.552-5.12h-286.080v96.64h222.208v46.080h-222.208v54.4h222.208v43.52h-222.208v55.68h222.208v42.88h-222.208v54.4h222.208v42.88h-222.208v55.68h222.208v43.52h-222.208v54.4h222.208v45.44h-222.208v108.096h293.888c0.64 0 3.2-1.92 7.168-5.76 4.096-4.032 6.528-8.96 7.232-14.72v-34.56h55.040zM582.208 931.584v-967.296l-582.208 100.48v763.712l582.272 103.040zM416.128 644.864l-68.288-4.48v-127.104c-0.768-74.432-0.768-117.44 0-128.896l-136.128 248.32-69.504-2.752v-352.256l54.4-4.48v259.904l146.752-267.264 72.768-4.48v383.36z" />
<glyph unicode="&#xe91a;" glyph-name="outlook" d="M1024 644.8v-447.040c0-9.856-3.392-18.048-10.112-24.576-6.72-6.592-14.976-9.856-24.832-9.856h-364.608v296.96l68.224-52.48c4.352-3.584 9.728-5.376 16.128-5.376s11.904 1.792 16.64 5.44l298.56 236.928zM624.448 731.008h364.608c9.088 0 16.832-2.688 23.232-8.192 6.4-5.44 9.92-12.8 10.624-21.76l-314.432-250.688-84.032 66.112v214.528zM571.968 923.136v-950.272l-571.968 98.816v749.888l572.032 101.568zM399.168 446.080c-0.832 48.384-13.312 88.448-37.504 120.064-23.68 31.616-54.4 48.256-90.88 49.728-35.2-1.472-65.28-18.048-89.6-49.728-24.32-31.616-36.48-71.68-37.12-120.064 0.64-47.68 13.44-87.296 37.76-119.040 24.32-31.616 54.4-48.32 89.6-50.176 36.48 1.472 67.2 18.112 91.52 49.92 24.32 31.872 37.12 71.68 37.76 119.296zM266.048 552c18.368-0.768 33.92-10.88 46.208-30.592 12.16-19.648 18.56-44.544 18.56-74.752 0-30.72-6.4-55.68-18.56-75.52-12.8-19.84-28.16-30.080-46.72-30.080s-33.92 9.6-46.72 29.44c-12.8 19.84-18.56 44.8-18.56 74.88s5.76 55.040 18.56 74.24c12.16 19.2 27.52 29.44 46.080 30.72z" />
<glyph unicode="&#xe91b;" glyph-name="powerpoint" d="M1002.24 789.44h-364.544v-136c21.952 16.64 48.32 25.088 79.168 25.088v-132.16h131.2c-0.64-37.12-13.44-68.352-38.4-93.632s-56.32-38.272-93.44-39.040c-28.8 0.768-55.040 9.472-78.080 26.24v-90.88h286.72v-44.608h-286.784v-55.168h286.528v-44.032h-286.72v-99.84h364.608c14.72 0 21.76 7.68 21.76 22.912v639.36c0 14.528-7.040 21.76-21.76 21.76zM737.472 568.128v133.312c37.12-0.832 68.288-13.76 93.44-38.848 24.96-25.088 37.952-56.576 38.656-94.464h-132.096zM352.32 565.888c-2.24 8.576-5.952 15.232-11.2 20.096-5.12 4.8-12.032 8.32-20.608 10.56-9.6 2.56-19.52 3.84-29.44 3.84l-30.72-0.64v-128h1.088c11.136-0.64 22.848-0.64 35.2 0 12.16 0.64 23.68 3.84 34.56 9.6 13.312 9.6 21.312 22.4 23.872 39.040s1.664 32.64-2.752 47.36zM0 829.568v-765.888l584.192-100.928v970.496l-584.192-103.68zM435.84 484.48c-16-37.12-39.872-60.8-71.808-71.040-32-10.24-66.56-14.208-103.68-11.968v-146.048l-76.928 8.96v401.216l122.048 6.4c22.656 1.408 44.992-1.088 66.88-7.68 21.952-6.528 39.296-19.648 52.16-39.36 12.8-19.648 20.032-42.496 21.76-68.48 1.6-26.048-1.792-50.048-10.368-72z" />
<glyph unicode="&#xe91c;" glyph-name="word" d="M1024 800.768v-706.048c0-5.952-2.112-10.88-6.4-14.72-4.288-3.968-9.408-5.888-15.36-5.888h-365.184v97.92h297.92v44.608h-298.176v54.592h297.92v44.544h-297.728v55.040h297.92v44.032h-297.92v55.168h297.92v44.544h-297.92v54.528h297.92v44.544h-297.92v55.68h297.92v42.368h-297.92v110.72h365.312c6.4 0 11.52-2.048 15.36-6.4 4.48-4.224 6.4-9.344 6.4-15.232zM582.4 932.736v-969.472l-582.4 100.736v765.184l582.4 103.68zM494.528 646.528l-72.96-4.48-46.72-289.536h-1.088c-2.304 13.696-10.88 61.632-26.24 143.68l-27.264 139.2-68.48-3.392-27.328-135.808c-16-79.104-24.96-125.12-27.264-138.112h-0.64l-41.6 266.688-62.72-3.328 67.2-336.32 69.76-4.48 26.24 130.88c15.36 76.8 24.32 121.408 26.24 133.632h1.92c2.56-12.992 10.88-58.624 26.24-136.96l26.24-134.784 75.52-4.48 84.48 377.6z" />
<glyph unicode="&#xe91d;" glyph-name="skype" d="M514.24 153.6c-171.84 0-248.64 84.608-248.64 148.032 0 32.64 23.936 55.36 56.96 55.36 73.6 0 54.4-105.792 191.68-105.792 70.144 0 108.992 38.208 108.992 77.312 0 23.552-11.52 49.6-57.856 61.056l-152.768 38.208c-123.072 30.912-145.408 97.664-145.408 160.256 0 130.176 122.24 179.072 237.056 179.072 105.6 0 230.4-58.624 230.4-136.704 0-33.472-29.44-52.928-62.080-52.928-62.72 0-51.2 87.040-177.92 87.040-62.72 0-97.92-28.416-97.92-69.12s49.28-53.76 92.16-63.552l112.64-25.088c123.52-27.712 154.88-100.224 154.88-168.512 0-105.728-81.28-184.704-244.48-184.704zM985.536 362.176l-1.28-5.76-1.92 10.24c0.64-1.92 1.92-3.2 2.56-5.12 5.12 28.8 7.68 58.24 7.68 87.68 0 65.28-12.8 128.64-38.4 188.8-24.32 57.6-59.52 109.44-103.68 153.6-44.8 44.16-96 79.36-153.6 103.68-56.256 26.944-119.616 39.744-184.896 39.744-30.72 0-61.696-3.008-91.52-8.768l5.12-2.56-10.24 1.472 5.12 1.024c-41.152 22.080-87.36 33.792-134.272 33.792-76.416 0-148.288-29.824-202.368-84.032s-83.84-126.272-83.84-202.88c0-48.832 12.48-96.768 36.032-139.2l0.832 5.312 1.792-10.24-2.56 4.928c-4.864-27.52-7.36-55.488-7.36-83.52 0-65.408 12.8-128.896 37.76-188.672 24.32-58.24 58.88-110.080 103.68-154.24 44.16-44.8 96-79.36 153.6-104.32 59.52-25.6 122.88-38.4 188.16-38.4 28.16 0 56.96 2.56 84.48 7.68l-5.12 2.56 10.24-1.92-5.76-1.28c42.88-24.32 90.88-37.12 140.8-37.12 76.16 0 147.84 29.44 202.24 83.84 53.76 53.76 83.84 126.080 83.84 202.88 0 48.64-12.8 96.64-36.48 139.52z" />
<glyph unicode="&#xe91e;" glyph-name="twitter" d="M1024 765.568c-37.76-16.64-78.080-27.968-120.64-33.088 43.328 26.048 76.672 67.2 92.352 116.224-40.576-23.68-85.568-40.96-133.44-50.56-38.272 40.96-92.8 66.56-153.344 66.56-115.968 0-210.048-94.080-210.048-209.92 0-16.64 1.92-32.64 5.44-48-174.592 8.32-329.408 92.16-433.024 218.88-18.176-30.784-28.416-66.624-28.416-105.664 0-72.96 37.12-137.152 93.44-174.848-34.432 1.088-66.88 10.56-95.168 26.24v-2.56c0-101.76 72.32-186.752 168.512-206.080-17.664-4.736-36.224-7.296-55.36-7.296-13.44 0-26.24 1.28-39.040 3.712 26.88-83.456 104.32-144.192 196.48-145.92-71.68-56.32-162.56-89.856-260.48-89.856-16.64 0-33.28 0.96-49.92 2.88 93.44-59.52 203.52-94.336 322.56-94.336 386.56 0 597.76 320 597.76 597.12 0 8.96 0 17.92-0.64 26.88 40.96 29.44 76.8 66.56 104.96 108.8z" />
<glyph unicode="&#xe91f;" glyph-name="vimeo" d="M1023.488 686.4c-4.48-99.84-74.24-236.608-208.832-410.24-139.52-181.248-257.28-271.872-353.92-271.872-60.16 0-110.080 55.168-151.68 165.632l-81.856 303.68c-30.72 110.336-63.552 165.568-98.688 165.568-7.68 0-34.432-16.128-80.32-48.32l-48.192 62.208c50.56 44.544 100.352 88.96 149.44 133.504 67.392 58.368 118.016 88.96 151.68 92.16 79.744 7.68 128.768-46.912 147.2-163.84 19.84-126.080 33.664-204.416 41.408-235.072 23.040-104.576 48.256-156.8 75.84-156.8 21.44 0 53.632 33.92 96.64 101.76 42.88 67.84 65.792 119.424 68.864 154.88 6.144 58.56-16.832 87.936-68.928 87.936-24.512 0-49.792-5.12-75.84-16.64 50.56 165.12 146.56 245.76 288.64 240.64 105.6-2.56 154.88-71.040 149.12-204.8z" />
<glyph unicode="&#xe920;" glyph-name="whatsapp" d="M746.56 346.368c-12.8 6.4-75.328 36.992-87.040 41.216-11.648 4.288-20.16 6.4-28.672-6.4-8.448-12.608-32.896-41.152-40.32-49.6-7.424-8.32-14.848-8.96-27.52-3.2-12.8 6.4-53.888 19.84-102.528 63.36-37.888 33.92-63.36 75.52-70.848 88.32-7.424 12.8-0.832 19.84 5.568 26.24 5.76 5.76 12.8 14.72 19.2 22.4 6.272 7.68 8.32 12.8 12.672 21.12 4.224 8.96 2.112 16-1.088 22.4s-28.672 69.12-39.296 94.080c-10.24 24.96-20.8 21.76-28.672 21.76-7.36 0.64-15.872 0.64-24.32 0.64-8.576 0-22.4-3.2-34.048-15.36-11.648-12.8-44.544-43.52-44.544-105.6s45.632-122.24 51.968-131.2c6.4-8.32 89.856-136.32 217.6-191.36 30.464-12.8 54.144-20.48 72.704-26.88 30.464-9.6 58.24-8.32 80.192-5.12 24.512 3.84 75.392 30.72 86.016 60.8 10.88 30.080 10.88 55.040 7.68 60.8s-11.52 8.96-24.32 14.72zM514.56 32h-0.64c-75.52 0-150.4 20.48-215.68 58.88l-15.36 9.152-160-41.6 42.88 155.52-10.24 16c-42.24 67.2-64.64 144.64-64.64 224.384 0 232.32 190.080 421.76 424.192 421.76 113.28 0 219.52-44.16 299.52-124.16 80-79.36 124.16-185.6 124.16-298.24-0.192-232.32-190.272-421.76-423.872-421.76zM875.52 812.8c-97.28 94.080-225.28 147.2-361.6 147.2-280.832 0-509.44-227.584-509.632-507.392 0-89.408 23.424-176.64 68.032-253.696l-72.32-262.912 270.272 70.528c74.496-40.32 158.336-61.696 243.648-61.76h0.256c280.96 0 509.696 227.648 509.824 507.52 0 135.488-52.928 263.040-149.12 358.912z" />
<glyph unicode="&#xe921;" glyph-name="youtube" d="M0 489.92v-80.64c0-82.88 10.24-165.76 10.24-165.76s9.984-70.4 40.704-101.568c38.912-40.768 90.112-39.488 112.896-43.776 81.92-7.872 348.16-10.24 348.16-10.24s215.168 0.256 358.4 10.624c20.096 2.432 63.744 2.56 102.656 43.392 30.72 31.104 40.704 101.632 40.704 101.632s10.24 82.816 10.24 165.76v80.512c0 82.944-10.24 165.76-10.24 165.76s-9.984 70.528-40.704 101.632c-38.912 40.832-82.56 40.96-102.656 43.392-143.232 10.368-358.4 10.624-358.4 10.624s-266.24-2.304-348.16-10.24c-22.784-4.288-73.984-3.008-112.896-43.776-30.72-31.168-40.704-101.568-40.704-101.568s-10.24-82.944-10.24-165.76zM406.272 315.2v287.68l276.672-144.32-276.48-143.36z" />
</font>
</defs>
</svg>
